<svg width="149" height="43" viewBox="0 0 149 43" fill="none" xmlns="http://www.w3.org/2000/svg">
<path d="M13.9067 5.83912L22.5004 10.7433V20.553L13.9067 25.4576L5.31389 20.5533V10.7437L13.9067 5.83912ZM13.9067 1.34521L1.37659 8.49678V22.7999L13.9067 29.9511L26.4373 22.7999V8.49678L13.9067 1.34521Z" fill="white"/>
<path d="M55.7111 29.7698C53.8833 29.7698 52.3004 29.4085 50.9635 28.6847C49.6258 27.9622 48.5917 26.9301 47.8607 25.5893C47.1298 24.2485 46.7639 22.6747 46.7639 20.8675V9.5127H50.9488V20.8679C50.9488 21.8949 51.146 22.7936 51.5405 23.564C51.9345 24.3348 52.4925 24.924 53.2143 25.3331C53.9361 25.7423 54.7774 25.9463 55.7397 25.9463C56.702 25.9463 57.5385 25.7419 58.2508 25.3331C58.9623 24.9248 59.5159 24.3348 59.9103 23.564C60.3044 22.7936 60.502 21.8949 60.502 20.8679V9.5127H64.6583V20.8679C64.6583 22.6563 64.2925 24.2207 63.5615 25.5614C62.8298 26.9022 61.796 27.9394 60.4587 28.6714C59.1214 29.4038 57.5385 29.7698 55.7111 29.7698Z" fill="white"/>
<path d="M68.006 29.485V9.5127H71.9889L82.0325 22.4087V9.5127H85.9587V29.4842H82.2635L71.9603 16.1319V29.485H68.006Z" fill="white"/>
<path d="M89.6234 29.485V9.5127H93.8079V25.8325H104.862V29.485H89.6234Z" fill="white"/>
<path d="M116.176 29.7982C114.675 29.7982 113.28 29.5361 111.991 29.0136C110.702 28.4903 109.571 27.7583 108.6 26.8161C107.628 25.8746 106.868 24.781 106.319 23.5355C105.771 22.2896 105.497 20.9441 105.497 19.4982C105.497 18.0527 105.771 16.7072 106.319 15.4609C106.868 14.2154 107.628 13.1214 108.6 12.1799C109.571 11.2385 110.702 10.5065 111.991 9.98279C113.28 9.45989 114.675 9.19824 116.176 9.19824C117.677 9.19824 119.077 9.45989 120.375 9.98279C121.674 10.5061 122.81 11.2381 123.781 12.1799C124.752 13.1214 125.508 14.2154 126.047 15.4609C126.585 16.7068 126.855 18.0527 126.855 19.4982C126.855 20.9441 126.585 22.2896 126.047 23.5355C125.509 24.7814 124.752 25.8746 123.781 26.8161C122.81 27.7576 121.674 28.4903 120.375 29.0136C119.077 29.5361 117.677 29.7982 116.176 29.7982ZM116.176 26.0045C117.1 26.0045 117.946 25.8378 118.715 25.5051C119.485 25.1725 120.159 24.7159 120.736 24.1357C121.313 23.5555 121.765 22.8659 122.092 22.0676C122.419 21.2681 122.583 20.4126 122.583 19.4998C122.583 18.5681 122.419 17.7071 122.092 16.9174C121.765 16.1286 121.313 15.4437 120.736 14.8635C120.159 14.2833 119.485 13.8267 118.715 13.494C117.946 13.1614 117.1 12.9947 116.176 12.9947C115.271 12.9947 114.434 13.1614 113.665 13.494C112.896 13.8271 112.221 14.2837 111.645 14.8635C111.067 15.4437 110.615 16.1286 110.288 16.9174C109.961 17.7071 109.797 18.5579 109.797 19.4711C109.797 20.4032 109.961 21.2685 110.288 22.068C110.615 22.8663 111.067 23.5559 111.645 24.1361C112.221 24.7162 112.895 25.1732 113.665 25.5055C114.435 25.8378 115.271 26.0045 116.176 26.0045Z" fill="white"/>
<path d="M139.698 29.7701C138.198 29.7701 136.792 29.5085 135.484 28.9852C134.176 28.4627 133.036 27.7346 132.065 26.8029C131.093 25.8713 130.333 24.7827 129.785 23.5361C129.236 22.2906 128.961 20.9451 128.961 19.4988C128.961 18.0344 129.236 16.6791 129.785 15.4333C130.333 14.1878 131.098 13.0984 132.079 12.1664C133.06 11.2347 134.2 10.5075 135.499 9.98377C136.797 9.46087 138.198 9.19922 139.698 9.19922C140.814 9.19922 141.891 9.35181 142.931 9.65583C143.969 9.96023 144.936 10.3882 145.831 10.9397C146.727 11.4917 147.492 12.1574 148.126 12.9368L145.297 15.7043C144.566 14.8103 143.724 14.1352 142.772 13.6786C141.82 13.222 140.795 12.9937 139.698 12.9937C138.794 12.9937 137.948 13.1604 137.159 13.4931C136.37 13.8261 135.687 14.2827 135.11 14.8625C134.532 15.4427 134.08 16.1276 133.753 16.9164C133.426 17.7061 133.263 18.5667 133.263 19.4988C133.263 20.4116 133.426 21.2632 133.753 22.0517C134.08 22.8418 134.542 23.5263 135.138 24.1065C135.735 24.6866 136.433 25.1385 137.23 25.461C138.029 25.785 138.9 25.9462 139.842 25.9462C140.9 25.9462 141.891 25.7273 142.815 25.2899C143.739 24.8526 144.556 24.2249 145.269 23.4066L148.01 26.0882C147.375 26.8492 146.615 27.5055 145.73 28.0574C144.846 28.6094 143.888 29.0322 142.859 29.3268C141.829 29.6226 140.775 29.7701 139.698 29.7701Z" fill="white"/>
<path d="M40.8103 34.1264L28.2798 41.2772L15.7496 34.1264V19.8225L28.2798 12.6709L40.8103 19.8225V34.1264Z" fill="url(#paint0_linear_19_12078)"/>
<defs>
<linearGradient id="paint0_linear_19_12078" x1="16.6115" y1="46.5606" x2="36.5681" y2="12.2795" gradientUnits="userSpaceOnUse">
<stop stop-color="#43499E"/>
<stop offset="0.1188" stop-color="#764395"/>
<stop offset="0.2665" stop-color="#A3378C"/>
<stop offset="0.3914" stop-color="#C42784"/>
<stop offset="0.487" stop-color="#D81680"/>
<stop offset="0.5418" stop-color="#DF0B7F"/>
<stop offset="0.8172" stop-color="#ED693C"/>
</linearGradient>
</defs>
</svg>
